<?xml version="1.0" encoding="UTF-8" standalone="no"?>
<svg xmlns="http://www.w3.org/2000/svg" width="24" height="24" viewBox="0 0 24 24">
  <g fill="none" fill-rule="evenodd">
    <path d="M0 0H24V24H0z">
    </path>
  <rect width="2" height="8" x="11" y="6" fill="lightpink" rx="1"></rect>
  <path fill="lightpink" fill-rule="nonzero" d="M12 15.75c.69 0 1.25.56 1.25 1.25s-.56 1.25-1.25 1.25-1.25-.56-1.25-1.25.56-1.25 1.25-1.25z"></path>
  <path fill="lightpink" fill-rule="nonzero" d="M12 22c5.523 0 10-4.477 10-10S17.523 2 12 2 2 6.477 2 12s4.477 10 10 10zm0-2c-4.418 0-8-3.582-8-8s3.582-8 8-8 8 3.582 8 8-3.582 8-8 8z">
  </path></g></svg>