<?xml version="1.0" encoding="UTF-8" standalone="no"?>
<svg
   xmlns="http://www.w3.org/2000/svg"
   width="256"
   height="256"
   viewBox="0 0 67.733332 67.733335"
   version="1.1"
   id="svg2608">

  <g
     id="layer1">
    <circle
       style="opacity:0.997;fill:#7293a0;stroke-width:0.319652;stroke-linecap:round;stroke-linejoin:round;stroke-opacity:0.421053;paint-order:fill markers stroke"
       id="path2610"
       cx="33.958672"
       cy="33.691406"
       r="33.742779" />
    <path
       id="path2616"
       style="opacity:0.997;fill:#ffffff;stroke-width:0.147494;stroke-linecap:round;stroke-linejoin:round;stroke-opacity:0.421053;paint-order:fill markers stroke"
       d="m 127.14572,26.326348 a 16.426266,16.426266 0 0 0 -16.40882,16.426388 16.426266,16.426266 0 0 0 16.42639,16.426386 16.426266,16.426266 0 0 0 16.42587,-16.426386 16.426266,16.426266 0 0 0 -16.42587,-16.426388 16.426266,16.426266 0 0 0 -0.0176,0 z m 0.0176,1.39268 A 15.033911,15.033911 0 0 1 142.197,42.752736 15.033911,15.033911 0 0 1 127.16329,57.786961 15.033911,15.033911 0 0 1 112.12906,42.752736 15.033911,15.033911 0 0 1 127.16329,27.719028 Z" />
    <path
       id="path2616-8"
       style="opacity:0.997;fill:#ffffff;stroke-width:0.130666;stroke-linecap:round;stroke-linejoin:round;stroke-opacity:0.421053;paint-order:fill markers stroke"
       d="M 33.943335,19.139325 A 14.552204,14.551975 0 0 0 19.406587,33.691408 14.552204,14.551975 0 0 0 33.958901,48.24349 14.552204,14.551975 0 0 0 48.510757,33.691408 14.552204,14.551975 0 0 0 33.958901,19.139325 a 14.552204,14.551975 0 0 0 -0.01559,0 z m 0.01559,1.23377 A 13.318702,13.318492 0 0 1 47.277427,33.691408 13.318702,13.318492 0 0 1 33.958901,47.010179 13.318702,13.318492 0 0 1 20.639917,33.691408 13.318702,13.318492 0 0 1 33.958901,20.373095 Z" />
    <path
       id="path2616-8-2"
       style="opacity:0.997;fill:#ffffff;stroke-width:0.166301;stroke-linecap:round;stroke-linejoin:round;stroke-opacity:0.421053;paint-order:fill markers stroke"
       d="M 33.939146,15.170576 A 18.520985,18.520695 0 0 0 15.437838,33.691408 18.520985,18.520695 0 0 0 33.958964,52.21224 18.520985,18.520695 0 0 0 52.479505,33.691408 18.520985,18.520695 0 0 0 33.958964,15.170576 a 18.520985,18.520695 0 0 0 -0.01985,0 z m 0.01985,1.570254 A 16.951073,16.950808 0 0 1 50.909808,33.691408 16.951073,16.950808 0 0 1 33.958968,50.642572 16.951073,16.950808 0 0 1 17.007535,33.691408 16.951073,16.950808 0 0 1 33.958968,16.74083 Z" />
    <path
       id="path2616-8-0"
       style="opacity:0.997;fill:#ffffff;stroke-width:0.201938;stroke-linecap:round;stroke-linejoin:round;stroke-opacity:0.421053;paint-order:fill markers stroke"
       d="M 33.934964,11.201826 A 22.489767,22.489417 0 0 0 11.469088,33.691408 22.489767,22.489417 0 0 0 33.959029,56.18099 22.489767,22.489417 0 0 0 56.448255,33.691408 22.489767,22.489417 0 0 0 33.959029,11.201826 a 22.489767,22.489417 0 0 0 -0.02411,0 z m 0.02411,1.906737 A 20.583446,20.583124 0 0 1 54.5422,33.691408 20.583446,20.583124 0 0 1 33.959039,54.274965 20.583446,20.583124 0 0 1 13.375152,33.691408 20.583446,20.583124 0 0 1 33.959039,13.108563 Z" />
    <path
       id="rect2623"
       style="opacity:0.997;fill:#7293a0;fill-opacity:1;stroke-width:0.345928;stroke-linecap:round;stroke-linejoin:round;stroke-miterlimit:4;stroke-dasharray:none;stroke-opacity:0.421053;paint-order:fill markers stroke"
       d="M 45.663057,27.899607 V 39.483205 H 61.53488 v -0.07657 a 1.2242644,5.7918006 0 0 0 0.197414,0.07657 1.2242644,5.7918006 0 0 0 1.224264,-5.791803 1.2242644,5.7918006 0 0 0 -1.224264,-5.791795 1.2242644,5.7918006 0 0 0 -0.197414,0.07657 v -0.07657 z" />
    <circle
       style="opacity:0.997;fill:#ffffff;stroke-width:0.239473;stroke-linecap:round;stroke-linejoin:round;stroke-opacity:0.421053;paint-order:fill markers stroke"
       id="path2621"
       cx="33.958672"
       cy="33.691406"
       r="10.583333" />
  </g>
</svg>
